<?xml version="1.0" standalone="no"?>
<!DOCTYPE svg PUBLIC "-//W3C//DTD SVG 20010904//EN"
 "http://www.w3.org/TR/2001/REC-SVG-20010904/DTD/svg10.dtd">
<svg version="1.0" xmlns="http://www.w3.org/2000/svg"
 width="300.000000pt" height="193.000000pt" viewBox="0 0 300.000000 193.000000"
 preserveAspectRatio="xMidYMid meet">
<metadata>
Created by potrace 1.10, written by Peter Selinger 2001-2011
</metadata>
<g transform="translate(0.000000,193.000000) scale(0.100000,-0.100000)"
fill="#000000" stroke="none">
<path d="M1496 1748 c-9 -12 -16 -33 -16 -46 0 -13 -3 -21 -7 -19 -5 3 -9 -6
-10 -20 0 -14 -7 -30 -13 -37 -10 -8 -11 -8 -5 4 6 12 5 12 -5 3 -8 -7 -10
-19 -5 -30 5 -10 7 -21 7 -25 -1 -5 3 -8 8 -8 5 0 10 -5 10 -11 0 -5 -4 -7
-10 -4 -5 3 -10 -3 -10 -14 0 -12 5 -21 10 -21 12 0 13 -37 1 -44 -5 -3 -11
-17 -13 -31 -3 -13 -1 -22 3 -19 5 3 9 -4 9 -16 0 -29 22 -20 28 11 2 13 5 67
6 119 1 88 23 220 36 220 3 0 14 -35 24 -77 17 -75 18 -116 4 -139 -16 -25
-20 -92 -7 -115 7 -13 12 -29 11 -36 -1 -6 2 -14 8 -18 5 -3 10 -11 10 -17 0
-6 -11 -1 -24 11 l-25 23 -22 -20 c-15 -15 -22 -34 -24 -66 -1 -26 1 -46 4
-46 11 0 39 -54 34 -67 -2 -6 1 -14 7 -18 6 -4 11 -1 9 6 -4 32 2 51 25 74 28
28 38 103 18 128 -6 7 -9 17 -5 20 3 4 0 14 -7 22 -18 22 -13 105 7 127 14 16
13 41 -3 101 -5 15 -2 16 20 6 14 -7 26 -17 26 -22 0 -6 9 -2 21 9 12 10 24
18 28 17 3 -1 7 0 8 1 1 1 -10 3 -25 4 -35 2 -72 22 -72 37 0 15 -38 65 -50
65 -5 0 -16 -10 -24 -22z m42 -400 c15 -15 16 -54 2 -63 -6 -4 -8 -11 -5 -16
4 -5 -3 -9 -14 -9 -11 0 -23 5 -27 12 -5 7 -2 8 7 3 11 -6 12 -5 2 6 -22 23
-10 79 17 79 3 0 11 -5 18 -12z"/>
<path d="M1677 1630 c-6 -23 16 -50 40 -50 14 0 14 2 0 18 -10 10 -17 26 -17
35 0 24 -17 21 -23 -3z"/>
<path d="M1751 1543 c21 -23 22 -25 4 -19 -11 4 1 -11 26 -33 36 -32 50 -52
63 -98 10 -32 21 -67 25 -78 4 -11 6 -38 5 -60 -4 -39 -3 -39 6 -10 11 32 8
84 -6 106 -5 8 -10 22 -11 32 -7 42 -104 187 -126 187 -6 0 0 -12 14 -27z"/>
<path d="M1350 1535 l-34 -25 27 2 c15 1 27 8 27 15 0 6 8 17 18 22 9 6 12 11
6 11 -5 0 -25 -11 -44 -25z"/>
<path d="M945 1473 c4 -18 1 -40 -7 -52 -14 -23 -8 -34 16 -25 21 8 21 63 1
90 -15 18 -16 17 -10 -13z"/>
<path d="M1240 1491 c0 -6 7 -14 16 -18 8 -3 13 -11 11 -17 -3 -6 7 -11 24
-11 33 0 40 20 8 22 -12 1 -30 10 -40 19 -12 11 -19 13 -19 5z"/>
<path d="M2055 1445 c11 -10 52 -32 90 -50 110 -52 147 -89 113 -112 -11 -7
-145 -21 -218 -23 -22 0 -23 -2 -7 -11 9 -5 21 -8 25 -5 4 2 51 6 105 7 53 2
94 5 92 8 -7 6 26 41 38 41 6 0 7 -3 4 -7 -4 -3 2 -12 13 -20 26 -19 25 -31
-6 -59 -17 -17 -37 -24 -64 -24 -22 0 -45 -7 -55 -16 -8 -9 -22 -13 -31 -10
-8 3 -12 2 -9 -3 8 -14 -13 -24 -40 -17 -13 3 -28 18 -33 33 -9 23 -11 25 -11
7 -1 -24 28 -54 56 -59 10 -1 32 8 50 21 19 14 49 25 78 28 44 3 113 44 122
73 4 10 -73 89 -115 118 -18 13 -161 77 -202 92 -9 3 -7 -2 5 -12z"/>
<path d="M1751 1406 c15 -15 30 -42 33 -61 7 -36 26 -58 26 -30 0 27 -39 94
-63 106 -20 11 -19 9 4 -15z"/>
<path d="M2200 1425 c0 -3 21 -15 48 -26 26 -11 56 -28 66 -37 12 -10 16 -12
11 -3 -5 9 -3 12 6 9 9 -3 13 -16 12 -34 -3 -28 -3 -28 7 -5 14 33 -15 63 -83
84 -58 18 -67 20 -67 12z"/>
<path d="M967 1359 c-15 -21 -31 -38 -35 -38 -4 1 -15 1 -25 0 -15 -1 -16 -3
-5 -15 11 -12 18 -10 46 17 33 31 57 66 50 72 -2 2 -16 -14 -31 -36z"/>
<path d="M1117 1373 c3 -7 -2 -16 -11 -19 -21 -8 -11 -24 15 -24 16 0 19 5 14
20 -5 15 -1 22 17 29 21 9 20 9 -8 8 -20 -1 -30 -6 -27 -14z"/>
<path d="M1446 1368 c-11 -35 -13 -57 -6 -53 5 3 10 -1 13 -7 3 -7 5 -4 4 7 0
11 3 30 7 43 5 14 3 22 -4 22 -6 0 -12 -6 -14 -12z"/>
<path d="M1035 1240 c-37 -19 -49 -27 -30 -23 17 3 39 12 50 19 24 17 39 18
29 2 -4 -7 -3 -8 5 -4 6 4 9 11 6 16 -3 4 1 11 7 13 7 3 9 6 3 6 -5 0 -37 -13
-70 -29z"/>
<path d="M1602 1246 c-30 -10 -51 -30 -52 -47 0 -4 12 -6 26 -6 15 0 29 -5 33
-11 3 -5 17 -12 31 -13 23 -4 25 -8 23 -54 -1 -39 1 -46 9 -31 12 21 6 115 -8
125 -5 3 -14 16 -19 27 -9 19 -13 20 -43 10z m38 -31 c0 -16 -9 -19 -35 -9
-13 5 -14 8 -3 15 20 13 38 11 38 -6z"/>
<path d="M1966 1236 c-37 -22 -76 -81 -76 -115 0 -14 1 -14 10 -1 8 13 10 12
10 -3 0 -10 5 -15 10 -12 6 4 7 13 2 22 -13 23 14 70 54 96 19 12 34 25 34 30
0 10 0 10 -44 -17z"/>
<path d="M1256 1217 c5 -13 55 -47 69 -47 4 0 2 7 -5 15 -7 8 -18 15 -25 15
-7 0 -15 7 -19 15 -3 8 -10 15 -15 15 -6 0 -8 -6 -5 -13z"/>
<path d="M2017 1201 c-9 -16 -17 -39 -17 -51 0 -19 2 -20 15 -10 9 8 13 21 9
32 -3 10 0 26 7 34 6 8 10 16 7 19 -2 2 -12 -9 -21 -24z"/>
<path d="M1475 1173 c14 -83 17 -92 36 -98 29 -10 59 4 59 26 0 19 -1 19 -16
4 -30 -29 -48 -14 -58 48 -5 31 -13 57 -18 57 -5 0 -6 -17 -3 -37z"/>
<path d="M2401 1189 c-13 -11 -39 -19 -58 -19 -38 0 -102 -43 -82 -55 18 -12
96 5 123 26 25 20 51 57 44 64 -2 2 -14 -5 -27 -16z m-81 -49 c0 -15 -7 -20
-25 -20 -24 0 -24 1 -8 20 10 11 21 20 25 20 5 0 8 -9 8 -20z"/>
<path d="M1801 1129 c-28 -62 -75 -119 -87 -106 -4 3 -7 25 -8 47 l-1 41 -16
-38 c-15 -35 -108 -133 -126 -133 -5 0 -20 7 -33 16 -14 8 -8 0 13 -19 20 -19
37 -40 37 -48 1 -10 4 -9 11 4 6 11 21 17 42 16 22 -1 25 -3 10 -6 -12 -2 -27
-11 -33 -19 -7 -8 -19 -14 -26 -14 -8 0 -14 -4 -14 -10 0 -15 9 -13 46 11 19
11 53 22 76 24 59 6 87 12 123 29 44 21 96 96 66 96 -5 0 -11 -9 -14 -19 -2
-11 -29 -33 -58 -50 l-53 -30 -25 22 c-14 12 -20 14 -12 5 7 -10 12 -18 10
-19 -2 0 -24 -3 -49 -5 l-45 -5 32 22 c39 25 35 39 -10 39 -24 0 -28 3 -17 10
8 5 29 10 45 10 17 0 43 7 59 15 15 8 34 15 40 15 17 0 56 43 56 61 0 10 -2
11 -8 2 -5 -8 -13 -9 -22 -3 -13 8 -12 10 3 10 14 0 17 5 12 20 -3 10 -1 29 5
40 7 12 9 24 6 27 -3 4 -19 -23 -35 -58z"/>
<path d="M1960 1160 c-21 -21 -27 -50 -9 -50 5 0 8 -4 5 -8 -6 -11 125 -5 135
5 5 5 -22 8 -59 8 -64 0 -67 1 -70 25 -3 24 -3 25 12 5 15 -19 15 -19 16 8 0
32 -4 33 -30 7z"/>
<path d="M1420 1160 c0 -8 11 -35 25 -59 14 -23 25 -49 25 -57 0 -8 4 -14 9
-14 5 0 11 -10 15 -23 5 -20 10 -22 41 -19 19 2 35 9 35 14 0 6 -15 8 -34 6
-26 -3 -32 0 -28 10 3 10 15 12 43 8 21 -3 40 -2 44 4 4 6 -12 10 -42 10 l-48
0 -42 68 c-24 37 -43 60 -43 52z"/>
<path d="M1050 1149 c0 -6 -78 -23 -92 -20 -5 0 -8 -3 -8 -8 0 -16 40 -24 55
-11 8 6 24 9 35 5 14 -4 28 -1 40 10 13 12 29 16 48 12 15 -3 34 -2 42 4 12 7
9 9 -10 10 -83 4 -110 3 -110 -2z"/>
<path d="M1180 1125 c-6 -8 -20 -12 -31 -10 -10 2 -19 0 -19 -6 0 -12 47 -12
55 1 8 13 45 13 45 1 0 -5 -10 -12 -22 -14 -20 -4 -19 -4 5 -6 15 0 27 3 27 9
0 5 8 7 18 3 13 -4 13 -2 -3 9 -30 22 -63 28 -75 13z"/>
<path d="M1271 1133 c-1 -7 9 -17 20 -24 17 -9 20 -8 14 2 -6 8 -4 11 7 7 8
-4 21 -2 29 4 11 8 10 9 -3 4 -10 -3 -18 -1 -18 5 0 6 -7 6 -19 -1 -14 -7 -21
-6 -24 3 -4 9 -6 9 -6 0z"/>
<path d="M1848 1083 c2 -34 -1 -41 -35 -64 -21 -15 -48 -29 -60 -33 -13 -4
-23 -12 -23 -18 0 -7 4 -7 13 0 6 6 28 14 47 19 22 6 43 21 56 41 16 23 24 28
33 19 17 -17 14 24 -5 51 -22 32 -30 27 -26 -15z"/>
<path d="M1919 1084 c-10 -13 -10 -17 1 -24 10 -6 11 -15 4 -32 -11 -25 -7
-68 5 -68 9 0 9 5 14 73 2 26 -1 47 -6 47 -4 0 -5 5 -2 10 10 16 -1 12 -16 -6z"/>
<path d="M2080 1084 l-25 -15 25 6 c14 3 52 8 85 11 81 8 83 14 4 14 -39 -1
-74 -7 -89 -16z"/>
<path d="M2284 1093 c-17 -2 -42 -15 -54 -29 l-23 -24 49 17 c27 9 58 22 69
30 20 13 20 14 -41 6z"/>
<path d="M1106 1083 c-4 -4 -25 -6 -46 -4 -41 3 -80 -6 -80 -17 0 -4 57 -7
126 -6 l127 1 86 -43 c64 -31 90 -40 103 -33 14 8 18 6 19 -8 2 -23 7 -108 9
-153 1 -34 2 -34 12 -10 6 14 10 45 9 70 -1 38 1 42 11 26 6 -11 18 -49 27
-84 l16 -64 11 41 c9 34 8 47 -6 74 -9 17 -23 49 -29 69 -7 21 -17 37 -23 35
-6 -1 -16 16 -23 38 -11 35 -13 37 -14 13 -1 -24 -5 -28 -30 -28 -17 0 -32 4
-35 9 -11 18 -135 60 -182 62 -27 1 -56 6 -65 10 -9 5 -19 5 -23 2z"/>
<path d="M1067 1025 c32 -14 58 -48 49 -63 -2 -4 10 -18 28 -31 18 -14 40 -42
51 -63 10 -21 20 -36 23 -33 12 12 32 -21 32 -54 0 -27 9 -45 33 -72 17 -20
52 -59 77 -87 25 -29 52 -52 60 -52 9 0 7 5 -8 16 -12 8 -22 22 -22 30 0 9
-21 36 -48 62 -54 54 -81 102 -57 102 17 0 8 12 -51 73 -27 28 -29 35 -20 59
11 31 10 33 -24 42 -18 6 -21 5 -10 -3 12 -9 12 -11 -2 -16 -24 -9 -38 2 -38
30 0 26 -38 58 -80 69 -18 4 -16 2 7 -9z"/>
<path d="M2115 1032 c-27 -1 -57 -5 -65 -8 -28 -11 30 -25 64 -16 17 5 39 8
49 6 17 -2 24 12 10 18 -5 2 -30 2 -58 0z"/>
<path d="M2194 1023 c4 -9 -6 -19 -27 -29 l-32 -15 50 7 c27 3 60 11 73 18 22
12 21 13 -23 23 -39 9 -45 8 -41 -4z"/>
<path d="M1213 1004 c-4 -11 -13 -14 -29 -10 -27 7 -33 -11 -8 -21 21 -8 46 8
50 30 3 21 -5 22 -13 1z"/>
<path d="M1256 976 c5 -12 2 -15 -10 -10 -10 4 -16 1 -16 -9 0 -8 7 -14 16
-13 9 0 19 -5 22 -13 3 -10 0 -12 -13 -7 -14 5 -16 4 -7 -7 7 -8 9 -16 6 -19
-3 -3 3 -5 13 -4 11 0 24 -11 33 -29 8 -16 19 -30 23 -30 4 0 17 -15 28 -32
12 -18 28 -33 37 -33 12 0 13 3 4 12 -7 7 -12 16 -12 21 0 13 43 -4 57 -22 10
-13 10 -8 1 22 -6 20 -15 37 -20 37 -5 0 -6 -5 -2 -12 4 -7 3 -8 -5 -4 -6 4
-19 2 -27 -5 -13 -10 -17 -10 -24 1 -11 18 -2 33 17 26 9 -4 13 -1 10 6 -2 8
-17 12 -36 10 -23 -1 -33 3 -38 15 -4 10 -15 29 -25 42 -10 13 -18 31 -18 40
1 10 6 6 16 -11 8 -16 21 -28 29 -28 8 0 15 -7 15 -15 0 -21 8 -19 32 8 15 17
18 18 14 5 -3 -12 0 -18 10 -18 8 0 12 -4 9 -10 -3 -5 -2 -10 4 -10 5 0 17 -3
26 -7 36 -13 -4 34 -59 71 -64 42 -120 59 -110 32z"/>
<path d="M2105 968 c-6 -14 -18 -23 -32 -22 -12 0 -20 -3 -17 -8 3 -4 1 -8 -5
-8 -5 0 -15 8 -20 18 -6 9 -11 13 -11 8 0 -5 7 -18 17 -28 19 -21 10 -23 -49
-9 l-36 9 4 -46 c5 -55 7 -58 28 -37 18 18 21 35 6 35 -5 0 -10 5 -10 11 0 5
8 9 18 8 44 -4 93 2 87 11 -3 6 4 10 17 10 18 0 20 2 8 10 -12 8 -10 10 11 10
36 0 41 8 18 31 -24 24 -22 24 -34 -3z"/>
<path d="M1859 937 c-37 -32 -60 -91 -32 -80 8 3 12 11 10 17 -6 15 12 40 41
55 21 11 22 10 24 -26 1 -34 2 -35 5 -8 2 17 0 40 -4 52 -8 21 -9 20 -44 -10z"/>
<path d="M1801 893 c-1 -9 -11 -10 -33 -6 -30 6 -32 5 -19 -10 7 -9 18 -14 24
-10 5 3 7 2 4 -4 -4 -5 7 -23 23 -38 23 -22 30 -25 30 -13 0 9 -9 20 -20 23
-22 7 -27 31 -8 37 6 2 8 11 5 19 -3 8 -6 9 -6 2z"/>
<path d="M1911 819 c1 -24 4 -35 6 -24 3 11 9 25 14 31 6 7 4 16 -6 24 -13 11
-15 7 -14 -31z"/>
<path d="M1620 843 c-42 -15 -82 -83 -49 -83 5 0 8 4 4 9 -3 6 4 15 15 21 20
11 21 10 9 -12 -6 -13 -16 -26 -22 -29 -6 -4 -6 -13 1 -24 8 -16 11 -14 17 14
4 18 13 35 22 38 8 3 12 12 8 21 -7 20 12 32 50 31 29 -1 28 -2 -9 -13 -22 -7
-36 -15 -30 -18 5 -3 18 -2 29 2 11 4 32 4 46 0 17 -5 31 -4 38 3 8 8 11 6 11
-7 0 -11 5 -16 14 -13 7 3 20 0 27 -6 8 -7 3 0 -10 15 -42 48 -118 70 -171 51z"/>
<path d="M1160 833 c-6 -30 -5 -39 8 -60 7 -12 21 -24 30 -28 12 -5 11 0 -5
17 -12 13 -23 37 -26 53 -2 17 -5 24 -7 18z"/>
<path d="M1977 827 c-10 -6 -25 -28 -35 -47 -9 -19 -22 -35 -29 -35 -6 0 -15
-4 -20 -9 -5 -5 -3 -6 5 -2 24 14 11 -13 -19 -38 -17 -14 -27 -26 -22 -26 15
1 81 68 88 90 4 14 12 19 22 16 11 -5 13 -1 8 15 -5 15 -4 19 4 15 6 -4 14 0
17 9 9 22 1 27 -19 12z"/>
<path d="M1360 743 c8 -3 23 -12 32 -20 9 -8 25 -13 35 -11 14 3 12 7 -14 21
-18 9 -40 17 -50 16 -14 0 -15 -2 -3 -6z"/>
<path d="M1661 729 c8 -5 26 -6 41 -3 35 7 53 -3 38 -21 -7 -8 -7 -16 -2 -19
15 -9 24 25 12 39 -6 8 -32 13 -57 13 -32 0 -42 -3 -32 -9z"/>
<path d="M1655 710 c3 -5 -1 -10 -9 -10 -9 0 -16 -4 -16 -8 0 -15 24 -32 45
-31 20 0 20 0 0 9 -21 8 -21 8 25 23 9 4 6 6 -7 6 -13 1 -23 6 -23 11 0 6 -5
10 -11 10 -5 0 -7 -4 -4 -10z"/>
<path d="M1588 649 c12 -14 19 -29 15 -33 -5 -4 -1 -6 7 -4 8 2 14 -2 15 -9 0
-20 18 -30 62 -36 32 -4 45 -1 55 12 10 13 10 14 -2 4 -21 -19 -35 -15 -18 5
25 29 32 48 9 25 -12 -13 -26 -23 -31 -23 -21 0 -61 21 -96 51 -27 23 -32 25
-16 8z"/>
<path d="M1670 640 c-21 -6 -22 -8 -8 -14 23 -10 61 -4 66 12 4 13 -19 14 -58
2z"/>
<path d="M1523 470 c0 -41 2 -58 4 -37 2 20 2 54 0 75 -2 20 -4 3 -4 -38z"/>
</g>
</svg>
